<svg width="258" height="28" viewBox="0 0 258 28" fill="none" xmlns="http://www.w3.org/2000/svg">
<path d="M67.3555 26.6954V8.61084V0.989258C67.3555 0.989258 80.9501 1.12298 86.0513 1.12298C87.7605 1.12298 89.4434 1.35697 91.0474 1.95868C93.7033 2.96152 95.3073 4.9672 95.5965 7.97572C95.9646 11.7865 95.9121 15.6642 95.6491 19.475C95.3598 23.7872 92.9407 26.2274 88.9438 26.6954H67.3555ZM75.3755 20.8789C76.3494 20.8789 77.3167 20.8844 78.2794 20.8899C80.67 20.9036 83.032 20.917 85.394 20.8455C86.8928 20.8121 87.8657 19.709 87.892 18.1044C87.9446 15.3633 87.9446 12.6222 87.892 9.88113C87.8657 8.37686 86.9454 7.24031 85.6043 7.20688C83.1844 7.13534 80.7644 7.14886 78.3254 7.16248C77.3456 7.16795 76.3627 7.17344 75.3755 7.17344V20.8789Z" fill="black"/>
<path d="M67.3555 26.6954V8.61084V0.989258C67.3555 0.989258 80.9501 1.12298 86.0513 1.12298C87.7605 1.12298 89.4434 1.35697 91.0474 1.95868C93.7033 2.96152 95.3073 4.9672 95.5965 7.97572C95.9646 11.7865 95.9121 15.6642 95.6491 19.475C95.3598 23.7872 92.9407 26.2274 88.9438 26.6954H67.3555ZM75.3755 20.8789C76.3494 20.8789 77.3167 20.8844 78.2794 20.8899C80.67 20.9036 83.032 20.917 85.394 20.8455C86.8928 20.8121 87.8657 19.709 87.892 18.1044C87.9446 15.3633 87.9446 12.6222 87.892 9.88113C87.8657 8.37686 86.9454 7.24031 85.6043 7.20688C83.1844 7.13534 80.7644 7.14886 78.3254 7.16248C77.3456 7.16795 76.3627 7.17344 75.3755 7.17344V20.8789Z" stroke="url(#paint0_linear_805_210)"/>
<path d="M37.7194 26.8624C36.2995 26.6284 35.0899 25.7593 34.0907 24.5559C33.7225 24.1213 33.4596 23.6868 33.3281 23.4193C32.8811 22.5836 32.6444 21.6142 32.5393 20.4442C32.1448 16.4663 32.2237 12.4884 32.4341 8.51042C32.697 3.73021 34.6429 1.45712 39.1394 1.18969C44.3984 0.888841 49.6837 0.721689 54.9428 1.32339C58.2823 1.72453 60.307 3.89735 60.5962 7.50758C60.9644 11.7864 60.9381 16.0986 60.5962 20.3774C60.4911 21.6811 60.2544 22.5836 59.9126 23.2522C59.9077 23.2584 59.8937 23.2842 59.8714 23.3256C59.7733 23.5069 59.514 23.9867 59.15 24.4222C57.7564 26.0602 55.4424 26.5616 54.8902 26.6284C52.0766 26.9961 46.5546 27.3638 37.7194 26.8624ZM52.9706 14.0929C52.9706 13.646 52.9736 13.2027 52.9765 12.7608C52.9823 11.8805 52.9881 11.0051 52.9706 10.115C52.918 8.24299 52.024 7.20673 50.2885 7.1733C47.7905 7.10644 45.2661 7.10644 42.7681 7.1733C41.0326 7.20673 40.1912 8.20957 40.1649 10.0147C40.1386 12.6555 40.1386 15.3297 40.1649 17.9706C40.1912 19.7422 41.0852 20.8119 42.7681 20.8454C45.3187 20.9122 47.8694 20.9122 50.42 20.8454C52.0503 20.8119 52.9443 19.7088 52.9706 17.9037C52.9882 17.0792 52.9823 16.2249 52.9765 15.3706C52.9736 14.9435 52.9706 14.5163 52.9706 14.0929Z" fill="black"/>
<path d="M37.7194 26.8624C36.2995 26.6284 35.0899 25.7593 34.0907 24.5559C33.7225 24.1213 33.4596 23.6868 33.3281 23.4193C32.8811 22.5836 32.6444 21.6142 32.5393 20.4442C32.1448 16.4663 32.2237 12.4884 32.4341 8.51042C32.697 3.73021 34.6429 1.45712 39.1394 1.18969C44.3984 0.888841 49.6837 0.721689 54.9428 1.32339C58.2823 1.72453 60.307 3.89735 60.5962 7.50758C60.9644 11.7864 60.9381 16.0986 60.5962 20.3774C60.4911 21.6811 60.2544 22.5836 59.9126 23.2522C59.9077 23.2584 59.8937 23.2842 59.8714 23.3256C59.7733 23.5069 59.514 23.9867 59.15 24.4222C57.7564 26.0602 55.4424 26.5616 54.8902 26.6284C52.0766 26.9961 46.5546 27.3638 37.7194 26.8624ZM52.9706 14.0929C52.9706 13.646 52.9736 13.2027 52.9765 12.7608C52.9823 11.8805 52.9881 11.0051 52.9706 10.115C52.918 8.24299 52.024 7.20673 50.2885 7.1733C47.7905 7.10644 45.2661 7.10644 42.7681 7.1733C41.0326 7.20673 40.1912 8.20957 40.1649 10.0147C40.1386 12.6555 40.1386 15.3297 40.1649 17.9706C40.1912 19.7422 41.0852 20.8119 42.7681 20.8454C45.3187 20.9122 47.8694 20.9122 50.42 20.8454C52.0503 20.8119 52.9443 19.7088 52.9706 17.9037C52.9882 17.0792 52.9823 16.2249 52.9765 15.3706C52.9736 14.9435 52.9706 14.5163 52.9706 14.0929Z" stroke="url(#paint1_linear_805_210)"/>
<path d="M253.421 20.8786C253.868 20.8786 254.184 20.9454 254.447 21.146C254.841 21.4134 254.999 21.9817 255.078 22.1154C255.367 22.9511 256.103 24.4888 257.287 26.929C257.076 26.929 256.892 26.929 256.761 26.929C256.603 26.929 238.012 26.929 228.967 26.929C228.967 26.7285 229.019 1.79116 229.019 1.18945C237.749 1.18945 246.4 1.18945 255.104 1.18945C255.104 3.12828 255.104 5.03367 255.104 7.07278C249.109 7.07278 242.982 7.07278 236.934 7.07278C236.934 7.67448 236.882 10.1147 236.882 10.683C241.431 10.683 245.875 10.683 250.371 10.683C250.371 12.7221 250.371 14.6275 250.371 16.6666C245.953 16.6666 241.51 16.6666 236.961 16.6666C236.961 18.104 236.961 19.508 236.961 20.8117" fill="black"/>
<path d="M125.941 20.8786C126.388 20.8786 126.703 20.9454 126.966 21.146C127.361 21.4134 127.519 21.9817 127.597 22.1154C127.887 22.9511 128.623 24.4888 129.806 26.929C129.596 26.929 129.412 26.929 129.28 26.929C129.123 26.929 110.532 26.929 101.486 26.929C101.486 26.7285 101.539 1.79116 101.539 1.18945C110.269 1.18945 118.92 1.18945 127.624 1.18945C127.624 3.12828 127.624 5.03367 127.624 7.07278C121.628 7.07278 115.502 7.07278 109.454 7.07278C109.454 7.67448 109.401 10.1147 109.401 10.683C113.95 10.683 118.394 10.683 122.891 10.683C122.891 12.7221 122.891 14.6275 122.891 16.6666C118.473 16.6666 114.029 16.6666 109.48 16.6666C109.48 18.104 109.48 19.508 109.48 20.8117" fill="black"/>
<path d="M101.486 26.929C101.513 20.0094 101.539 13.1233 101.539 6.20366C101.539 4.56569 101.539 2.92771 101.539 1.18945C110.269 1.18945 118.92 1.18945 127.65 1.18945C127.65 3.12828 127.65 5.0671 127.65 7.13964C121.602 7.13964 115.581 7.13964 109.506 7.13964C109.506 8.34305 109.506 9.41275 109.506 10.6496C113.924 10.6496 118.368 10.6496 122.891 10.6496C122.891 12.7221 122.891 14.661 122.891 16.7335C118.499 16.7335 114.055 16.7335 109.533 16.7335C109.533 18.1375 109.533 19.4412 109.533 20.7783C109.953 21.0457 110.453 20.912 110.9 20.912C115.949 20.912 121.024 20.9454 126.072 20.912C126.809 20.912 127.229 21.146 127.519 21.8814C128.123 23.4191 128.833 24.9234 129.438 26.3608C129.123 26.9625 128.492 26.3942 128.307 26.9625C119.341 26.929 110.427 26.929 101.486 26.929Z" fill="black"/>
<path d="M162.52 26.9288C162.782 25.6585 163.466 24.5888 163.992 23.4857C167.253 16.399 170.566 9.34564 173.8 2.22547C174.195 1.35634 174.642 1.05548 175.536 1.0889C178.349 1.15576 181.163 1.12233 183.95 1.0889C184.529 1.0889 184.949 1.15576 185.265 1.82433C189.051 10.1145 192.89 18.3712 196.703 26.6279C196.73 26.6948 196.73 26.7951 196.756 26.8954C193.863 26.8954 190.971 26.8954 188.078 26.8954C187.526 25.5582 186.948 24.2546 186.448 22.9174C186.238 22.3492 185.896 22.2154 185.37 22.2154C181.557 22.2489 177.744 22.2489 173.932 22.2154C173.432 22.2154 173.064 22.3157 172.827 22.8506C172.249 24.2211 171.591 25.5248 170.96 26.8954C168.147 26.9288 165.333 26.9288 162.52 26.9288ZM179.848 6.87197C179.717 6.87197 179.533 6.87197 179.401 6.87197C178.086 9.94735 176.772 12.9893 175.43 16.1315C178.297 16.1315 180.979 16.1315 183.792 16.1315C182.425 12.9559 181.137 9.91393 179.848 6.87197Z" fill="black"/>
<path d="M155.866 26.8957C150.37 26.8623 144.848 27.1966 139.352 26.9292C139.168 26.9292 138.984 26.8957 138.669 26.8289C138.511 26.7954 138.353 26.762 138.222 26.7286C137.275 26.4612 136.144 25.9597 135.04 24.6895C134.146 23.6198 133.594 22.4498 133.41 20.4775C133.041 16.5665 133.068 12.622 133.357 8.71089C133.699 3.89725 136.092 1.28986 140.562 1.18958C146.084 1.05587 151.843 1.05587 157.391 1.35672C158.127 1.39015 159.389 1.42358 159.232 2.02528C158.784 3.83039 158.39 5.60206 157.969 7.4406C153.683 7.4406 149.423 7.4406 145.19 7.4406C141.614 7.4406 141.114 7.97546 141.114 11.7528C141.114 13.7251 141.088 15.6973 141.14 17.6696C141.193 19.8424 141.956 20.6112 143.98 20.6447C148.582 20.6447 153.157 20.6781 157.759 20.6113C158.153 20.6113 158.469 20.6781 158.706 20.8118C159.047 21.0458 159.179 21.3801 159.232 21.5138C159.547 22.2158 160.31 25.2912 160.914 26.9626" fill="black"/>
<path d="M194.18 1.12354C196.783 1.12354 199.412 1.12354 202.042 1.12354C202.647 1.12354 202.699 1.59152 202.831 1.99266C205.013 7.87599 207.59 13.6256 209.457 19.6761C209.536 19.9101 209.536 20.2444 209.852 20.3447C210.193 20.3447 210.193 20.0104 210.272 19.7764C212.087 13.6256 214.821 7.84257 217.057 1.89238C217.214 1.49124 217.319 1.15696 217.819 1.15696C220.396 1.19038 223.078 1.15696 225.734 1.15696C225.261 2.66122 224.735 3.53035 224.235 4.9009C221.211 12.1214 218.45 18.6733 215.347 25.6931C215.163 26.0943 215.032 26.5288 214.874 26.9634C211.561 26.9634 208.221 26.9634 204.908 26.9634C202.673 21.6483 200.412 16.2999 198.177 10.9848" fill="black"/>
<path d="M23.4439 26.6953C17.9482 26.6619 12.4262 26.9962 6.93047 26.7288C6.7464 26.7288 6.56234 26.6953 6.24679 26.6285C6.08902 26.595 5.93126 26.5616 5.79978 26.5282C4.85315 26.2608 3.72246 25.7593 2.61806 24.4891C1.72402 23.4194 1.17182 22.2494 0.987753 20.2771C0.61962 16.3661 0.64592 12.4216 0.935167 8.51048C1.277 3.69684 3.66987 1.08945 8.14005 0.989167C13.662 0.855455 19.3944 0.822027 24.969 1.15631C25.7052 1.18974 26.9674 1.22316 26.8096 1.82487C26.3626 3.62998 25.9682 5.40167 25.5475 7.24021C21.2614 7.24021 17.0015 7.24021 12.768 7.24021C9.19186 7.24021 8.69225 7.77507 8.69225 11.5524C8.69225 13.5247 8.66596 15.4969 8.71855 17.4692C8.77114 19.642 9.5337 20.4109 11.5584 20.4443C16.1601 20.4443 20.7354 20.4777 25.3371 20.4109C25.7315 20.4109 26.0471 20.4777 26.2837 20.6114C26.6256 20.8454 26.7571 21.1797 26.8096 21.3134C27.1252 22.0154 27.8877 25.0908 28.4925 26.7622" fill="black"/>
<defs>
<linearGradient id="paint0_linear_805_210" x1="81.6075" y1="0.989258" x2="81.6075" y2="26.6954" gradientUnits="userSpaceOnUse">
<stop/>
<stop offset="1" stop-color="#B7B2F3" stop-opacity="0"/>
</linearGradient>
<linearGradient id="paint1_linear_805_210" x1="46.5612" y1="0.917969" x2="46.5612" y2="27.1068" gradientUnits="userSpaceOnUse">
<stop/>
<stop offset="1" stop-color="#B7B2F3" stop-opacity="0"/>
</linearGradient>
</defs>
</svg>
