<svg width="200" height="67" viewBox="0 0 200 67" fill="none" xmlns="http://www.w3.org/2000/svg">
<path d="M73.9268 66.9944H92.5926V50.5174C92.5926 50.5174 68.2556 17.6966 54.6059 0.00119134C46.7558 -0.00151245 36.0082 0.00123158 36.0082 0.00123158L35.9241 18.4616L73.9268 66.9944Z" fill="#5F20FE"/>
<path d="M55.8647 67L62.6787 58.46L55.7215 49.3863H36.1337L28.6083 57.926L36.1337 67H55.8647Z" fill="#5F20FE"/>
<path d="M16.3838 66.9982H0V51.6981L22.4876 26.0225H38.8714V41.3226L16.3838 66.9982Z" fill="#5F20FE"/>
<path d="M55.8647 67L62.6787 58.46L55.7215 49.3863H36.1337L28.6083 57.926L36.1337 67H55.8647Z" fill="#5F20FE"/>
<path d="M55.8647 67L62.6787 58.46L55.7215 49.3863H36.1337L28.6083 57.926L36.1337 67H55.8647Z" fill="#5F20FE"/>
<path d="M190.247 40.3027C187.972 40.3027 185.95 39.8325 184.181 38.8922C182.435 37.952 181.068 36.6647 180.08 35.0304C179.115 33.3737 178.632 31.5043 178.632 29.4223C178.632 27.4298 179.103 25.6499 180.046 24.0828C181.01 22.4933 182.309 21.2396 183.94 20.3217C185.571 19.4038 187.375 18.9448 189.351 18.9448C191.373 18.9448 193.176 19.4038 194.762 20.3217C196.37 21.2172 197.645 22.4373 198.587 23.9821C199.529 25.5268 200 27.2842 200 29.2544V30.9059H187.145C186.571 30.9059 186.046 30.9059 185.294 30.9059C184.542 30.9059 184.542 30.9059 183.79 30.9059C184.066 32.3611 184.801 33.4856 185.973 34.4259C187.145 35.3662 188.615 35.8363 190.385 35.8363C191.694 35.8363 192.877 35.5677 193.934 35.0304C194.991 34.4931 195.864 33.8214 196.554 33.0155L197.794 37.952C196.76 38.7355 195.6 39.3176 194.313 39.6982C193.027 40.1012 191.671 40.3027 190.247 40.3027ZM183.669 27.5753C184.893 27.5753 185.94 27.5753 187.089 27.5753H191.535C192.155 27.5753 192.86 27.5753 193.394 27.5753C193.965 27.5753 194.458 27.5753 194.946 27.5753C194.601 26.2768 193.911 25.1686 192.9 24.385C191.913 23.6015 190.718 23.2097 189.316 23.2097C187.938 23.2097 186.743 23.6127 185.732 24.4186C184.721 25.2246 184.036 26.2768 183.669 27.5753Z" fill="white"/>
<path d="M190.247 40.3027C187.972 40.3027 185.95 39.8325 184.181 38.8922C182.435 37.952 181.068 36.6647 180.08 35.0304C179.115 33.3737 178.632 31.5043 178.632 29.4223C178.632 27.4298 179.103 25.6499 180.046 24.0828C181.01 22.4933 182.309 21.2396 183.94 20.3217C185.571 19.4038 187.375 18.9448 189.351 18.9448C191.373 18.9448 193.176 19.4038 194.762 20.3217C196.37 21.2172 197.645 22.4373 198.587 23.9821C199.529 25.5268 200 27.2842 200 29.2544V30.9059H187.145C186.571 30.9059 186.046 30.9059 185.294 30.9059C184.542 30.9059 184.542 30.9059 183.79 30.9059C184.066 32.3611 184.801 33.4856 185.973 34.4259C187.145 35.3662 188.615 35.8363 190.385 35.8363C191.694 35.8363 192.877 35.5677 193.934 35.0304C194.991 34.4931 195.864 33.8214 196.554 33.0155L197.794 37.952C196.76 38.7355 195.6 39.3176 194.313 39.6982C193.027 40.1012 191.671 40.3027 190.247 40.3027ZM183.669 27.5753C184.893 27.5753 185.94 27.5753 187.089 27.5753H191.535C192.155 27.5753 192.86 27.5753 193.394 27.5753C193.965 27.5753 194.458 27.5753 194.946 27.5753C194.601 26.2768 193.911 25.1686 192.9 24.385C191.913 23.6015 190.718 23.2097 189.316 23.2097C187.938 23.2097 186.743 23.6127 185.732 24.4186C184.721 25.2246 184.036 26.2768 183.669 27.5753Z" fill="white"/>
<path d="M155.484 40.3027V18.9448H163.071C164.856 18.9448 166.476 19.2108 167.931 19.7426C169.402 20.2745 170.666 21.0115 171.724 21.9537C172.798 22.8807 173.625 23.9673 174.203 25.2134C174.782 26.4595 175.071 28.3474 175.071 29.7607C175.071 31.174 174.782 32.5037 174.203 33.7498C173.625 34.9959 172.798 36.3198 171.724 37.262C170.666 38.189 169.402 38.973 167.931 39.5048C166.476 40.0367 164.856 40.3027 163.071 40.3027H155.484ZM160.113 36.0738C161.369 36.0738 165.181 36.131 166.14 35.7966C167.098 35.4471 167.757 35.0035 168.402 34.4108C169.063 33.803 169.559 33.1039 169.889 32.3137C170.236 31.5235 170.402 30.5355 170.402 29.6237C170.402 28.712 170.236 27.4397 169.889 26.6494C169.559 25.844 169.063 25.145 168.402 24.5523C167.757 23.9445 167.098 23.6753 166.14 23.341C165.181 23.0066 161.369 22.8413 160.113 22.8413V36.0738Z" fill="white"/>
<path d="M155.484 40.3027V18.9448H163.071C164.856 18.9448 166.476 19.2108 167.931 19.7426C169.402 20.2745 170.666 21.0115 171.724 21.9537C172.798 22.8807 173.625 23.9673 174.203 25.2134C174.782 26.4595 175.071 28.3474 175.071 29.7607C175.071 31.174 174.782 32.5037 174.203 33.7498C173.625 34.9959 172.798 36.3198 171.724 37.262C170.666 38.189 169.402 38.973 167.931 39.5048C166.476 40.0367 164.856 40.3027 163.071 40.3027H155.484ZM160.113 36.0738C161.369 36.0738 165.181 36.131 166.14 35.7966C167.098 35.4471 167.757 35.0035 168.402 34.4108C169.063 33.803 169.559 33.1039 169.889 32.3137C170.236 31.5235 170.402 30.5355 170.402 29.6237C170.402 28.712 170.236 27.4397 169.889 26.6494C169.559 25.844 169.063 25.145 168.402 24.5523C167.757 23.9445 167.098 23.6753 166.14 23.341C165.181 23.0066 161.369 22.8413 160.113 22.8413V36.0738Z" fill="white"/>
<path d="M139.999 66.966C138.11 66.966 136.382 66.4906 134.815 65.5399C133.248 64.5665 131.992 63.2762 131.048 61.669C130.126 60.0391 129.665 58.2508 129.665 56.3041C129.665 54.3573 130.126 52.5803 131.048 50.9731C131.992 49.3432 133.248 48.0529 134.815 47.1022C136.382 46.1288 138.11 45.6421 139.999 45.6421C141.359 45.6421 142.614 45.8798 143.766 46.3552C144.919 46.8306 145.898 47.4983 146.704 48.3585V46.0994H151.923V66.966L146.704 67V64.2496C145.898 65.0872 144.919 65.7549 143.766 66.2529C142.614 66.7283 141.359 66.966 139.999 66.966ZM140.656 62.2462C141.762 62.2462 142.753 61.9746 143.628 61.4313C144.527 60.888 145.241 60.175 145.771 59.2921C146.301 58.3867 146.566 57.3906 146.566 56.3041C146.566 55.2175 146.301 54.2328 145.771 53.35C145.241 52.4445 144.527 51.7201 143.628 51.1768C142.753 50.6335 141.773 50.3619 140.69 50.3619C139.584 50.3619 138.582 50.6335 137.684 51.1768C136.808 51.7201 136.105 52.4445 135.575 53.35C135.045 54.2328 134.78 55.2175 134.78 56.3041C134.78 57.3906 135.045 58.3867 135.575 59.2921C136.105 60.175 136.808 60.888 137.684 61.4313C138.582 61.9746 139.573 62.2462 140.656 62.2462Z" fill="white"/>
<path d="M139.999 66.966C138.11 66.966 136.382 66.4906 134.815 65.5399C133.248 64.5665 131.992 63.2762 131.048 61.669C130.126 60.0391 129.665 58.2508 129.665 56.3041C129.665 54.3573 130.126 52.5803 131.048 50.9731C131.992 49.3432 133.248 48.0529 134.815 47.1022C136.382 46.1288 138.11 45.6421 139.999 45.6421C141.359 45.6421 142.614 45.8798 143.766 46.3552C144.919 46.8306 145.898 47.4983 146.704 48.3585V46.0994H151.923V66.966L146.704 67V64.2496C145.898 65.0872 144.919 65.7549 143.766 66.2529C142.614 66.7283 141.359 66.966 139.999 66.966ZM140.656 62.2462C141.762 62.2462 142.753 61.9746 143.628 61.4313C144.527 60.888 145.241 60.175 145.771 59.2921C146.301 58.3867 146.566 57.3906 146.566 56.3041C146.566 55.2175 146.301 54.2328 145.771 53.35C145.241 52.4445 144.527 51.7201 143.628 51.1768C142.753 50.6335 141.773 50.3619 140.69 50.3619C139.584 50.3619 138.582 50.6335 137.684 51.1768C136.808 51.7201 136.105 52.4445 135.575 53.35C135.045 54.2328 134.78 55.2175 134.78 56.3041C134.78 57.3906 135.045 58.3867 135.575 59.2921C136.105 60.175 136.808 60.888 137.684 61.4313C138.582 61.9746 139.573 62.2462 140.656 62.2462Z" fill="white"/>
<path d="M140.572 40.3027C138.562 40.3027 136.722 39.8213 135.051 38.8587C133.402 37.896 132.093 36.6087 131.122 34.9968C130.151 33.3849 129.665 31.5939 129.665 29.6237C129.665 27.6536 130.151 25.8626 131.122 24.2507C132.093 22.6388 133.402 21.3515 135.051 20.3888C136.722 19.4262 138.551 18.9448 140.538 18.9448C142.57 18.9448 144.41 19.4262 146.059 20.3888C147.707 21.3515 149.017 22.6388 149.988 24.2507C150.981 25.8402 151.478 27.6312 151.478 29.6237C151.478 31.5715 150.981 33.3625 149.988 34.9968C149.017 36.6087 147.707 37.896 146.059 38.8587C144.41 39.8213 142.581 40.3027 140.572 40.3027ZM140.538 35.5341C141.644 35.5341 142.638 35.2654 143.518 34.7281C144.399 34.1908 145.099 33.4744 145.618 32.5789C146.138 31.6834 146.397 30.6984 146.397 29.6237C146.397 28.5268 146.138 27.5417 145.618 26.6686C145.099 25.7731 144.399 25.0567 143.518 24.5194C142.638 23.9821 141.644 23.7134 140.538 23.7134C139.454 23.7134 138.472 23.9821 137.591 24.5194C136.71 25.0567 136.01 25.7731 135.491 26.6686C134.972 27.5417 134.712 28.5268 134.712 29.6237C134.712 30.6984 134.972 31.6834 135.491 32.5789C136.01 33.4744 136.71 34.1908 137.591 34.7281C138.472 35.2654 139.454 35.5341 140.538 35.5341Z" fill="white"/>
<path d="M140.572 40.3027C138.562 40.3027 136.722 39.8213 135.051 38.8587C133.402 37.896 132.093 36.6087 131.122 34.9968C130.151 33.3849 129.665 31.5939 129.665 29.6237C129.665 27.6536 130.151 25.8626 131.122 24.2507C132.093 22.6388 133.402 21.3515 135.051 20.3888C136.722 19.4262 138.551 18.9448 140.538 18.9448C142.57 18.9448 144.41 19.4262 146.059 20.3888C147.707 21.3515 149.017 22.6388 149.988 24.2507C150.981 25.8402 151.478 27.6312 151.478 29.6237C151.478 31.5715 150.981 33.3625 149.988 34.9968C149.017 36.6087 147.707 37.896 146.059 38.8587C144.41 39.8213 142.581 40.3027 140.572 40.3027ZM140.538 35.5341C141.644 35.5341 142.638 35.2654 143.518 34.7281C144.399 34.1908 145.099 33.4744 145.618 32.5789C146.138 31.6834 146.397 30.6984 146.397 29.6237C146.397 28.5268 146.138 27.5417 145.618 26.6686C145.099 25.7731 144.399 25.0567 143.518 24.5194C142.638 23.9821 141.644 23.7134 140.538 23.7134C139.454 23.7134 138.472 23.9821 137.591 24.5194C136.71 25.0567 136.01 25.7731 135.491 26.6686C134.972 27.5417 134.712 28.5268 134.712 29.6237C134.712 30.6984 134.972 31.6834 135.491 32.5789C136.01 33.4744 136.71 34.1908 137.591 34.7281C138.472 35.2654 139.454 35.5341 140.538 35.5341Z" fill="white"/>
<path d="M118.556 67C116.502 67 114.621 66.5186 112.913 65.556C111.228 64.5933 109.889 63.306 108.896 61.6941C107.904 60.0598 107.407 58.2688 107.407 56.3211C107.407 54.3509 107.904 52.5599 108.896 50.948C109.889 49.3361 111.228 48.0488 112.913 47.0861C114.621 46.1235 116.502 45.6421 118.556 45.6421C120.01 45.6421 121.384 45.8772 122.676 46.3473C123.969 46.8175 125.111 47.5003 126.104 48.3958L124.65 53.9703C124.073 53.0077 123.276 52.1793 122.261 51.4853C121.245 50.7689 120.068 50.4107 118.729 50.4107C117.575 50.4107 116.536 50.6793 115.613 51.2167C114.713 51.754 113.997 52.4704 113.466 53.3659C112.936 54.239 112.67 55.2241 112.67 56.3211C112.67 57.3957 112.936 58.3807 113.466 59.2762C113.997 60.1717 114.713 60.8881 115.613 61.4254C116.536 61.9627 117.575 62.2314 118.729 62.2314C120.068 62.2314 121.245 61.8844 122.261 61.1904C123.276 60.474 124.073 59.6344 124.65 58.6717L126.104 64.2463C125.111 65.1418 123.969 65.8246 122.676 66.2947C121.384 66.7649 120.01 67 118.556 67Z" fill="white"/>
<path d="M118.556 67C116.502 67 114.621 66.5186 112.913 65.556C111.228 64.5933 109.889 63.306 108.896 61.6941C107.904 60.0598 107.407 58.2688 107.407 56.3211C107.407 54.3509 107.904 52.5599 108.896 50.948C109.889 49.3361 111.228 48.0488 112.913 47.0861C114.621 46.1235 116.502 45.6421 118.556 45.6421C120.01 45.6421 121.384 45.8772 122.676 46.3473C123.969 46.8175 125.111 47.5003 126.104 48.3958L124.65 53.9703C124.073 53.0077 123.276 52.1793 122.261 51.4853C121.245 50.7689 120.068 50.4107 118.729 50.4107C117.575 50.4107 116.536 50.6793 115.613 51.2167C114.713 51.754 113.997 52.4704 113.466 53.3659C112.936 54.239 112.67 55.2241 112.67 56.3211C112.67 57.3957 112.936 58.3807 113.466 59.2762C113.997 60.1717 114.713 60.8881 115.613 61.4254C116.536 61.9627 117.575 62.2314 118.729 62.2314C120.068 62.2314 121.245 61.8844 122.261 61.1904C123.276 60.474 124.073 59.6344 124.65 58.6717L126.104 64.2463C125.111 65.1418 123.969 65.8246 122.676 66.2947C121.384 66.7649 120.01 67 118.556 67Z" fill="white"/>
<path d="M118.556 40.7476C116.502 40.7476 114.621 40.2663 112.913 39.3036C111.228 38.3409 109.889 37.0537 108.896 35.4417C107.904 33.8074 107.407 32.0164 107.407 30.0687C107.407 28.0986 107.904 26.3076 108.896 24.6957C109.889 23.0837 111.228 21.7965 112.913 20.8338C114.621 19.8711 116.502 19.3898 118.556 19.3898C120.01 19.3898 121.384 19.6248 122.676 20.095C123.969 20.5651 125.111 21.248 126.104 22.1435L124.65 27.718C124.073 26.7553 123.276 25.927 122.261 25.233C121.245 24.5166 120.068 24.1584 118.729 24.1584C117.575 24.1584 116.536 24.427 115.613 24.9643C114.713 25.5016 113.997 26.218 113.466 27.1135C112.936 27.9867 112.67 28.9717 112.67 30.0687C112.67 31.1433 112.936 32.1284 113.466 33.0239C113.997 33.9194 114.713 34.6358 115.613 35.1731C116.536 35.7104 117.575 35.979 118.729 35.979C120.068 35.979 121.245 35.632 122.261 34.938C123.276 34.2216 124.073 33.3821 124.65 32.4194L126.104 37.9939C125.111 38.8894 123.969 39.5723 122.676 40.0424C121.384 40.5126 120.01 40.7476 118.556 40.7476Z" fill="white"/>
<path d="M118.556 40.7476C116.502 40.7476 114.621 40.2663 112.913 39.3036C111.228 38.3409 109.889 37.0537 108.896 35.4417C107.904 33.8074 107.407 32.0164 107.407 30.0687C107.407 28.0986 107.904 26.3076 108.896 24.6957C109.889 23.0837 111.228 21.7965 112.913 20.8338C114.621 19.8711 116.502 19.3898 118.556 19.3898C120.01 19.3898 121.384 19.6248 122.676 20.095C123.969 20.5651 125.111 21.248 126.104 22.1435L124.65 27.718C124.073 26.7553 123.276 25.927 122.261 25.233C121.245 24.5166 120.068 24.1584 118.729 24.1584C117.575 24.1584 116.536 24.427 115.613 24.9643C114.713 25.5016 113.997 26.218 113.466 27.1135C112.936 27.9867 112.67 28.9717 112.67 30.0687C112.67 31.1433 112.936 32.1284 113.466 33.0239C113.997 33.9194 114.713 34.6358 115.613 35.1731C116.536 35.7104 117.575 35.979 118.729 35.979C120.068 35.979 121.245 35.632 122.261 34.938C123.276 34.2216 124.073 33.3821 124.65 32.4194L126.104 37.9939C125.111 38.8894 123.969 39.5723 122.676 40.0424C121.384 40.5126 120.01 40.7476 118.556 40.7476Z" fill="white"/>
<path d="M164.698 67H167.638L177.297 46.1242L171.955 46.1243C171.955 46.1243 166.583 57.9214 166.306 58.6086C166.03 57.9214 160.826 46.1242 160.826 46.1242H155.039L164.698 67Z" fill="white"/>
<path d="M190.247 67C187.972 67 185.95 66.5298 184.181 65.5895C182.435 64.6493 181.068 63.362 180.08 61.7277C179.115 60.071 178.632 58.2016 178.632 56.1196C178.632 54.127 179.103 52.3472 180.046 50.7801C181.01 49.1906 182.309 47.9369 183.94 47.019C185.571 46.1011 187.375 45.6421 189.351 45.6421C191.373 45.6421 193.176 46.1011 194.762 47.019C196.37 47.9145 197.645 49.1346 198.587 50.6793C199.529 52.2241 200 53.9815 200 55.9516V57.6032H187.145C186.571 57.6032 186.046 57.6032 185.294 57.6032C184.542 57.6032 184.542 57.6032 183.79 57.6032C184.066 59.0584 184.801 60.1829 185.973 61.1232C187.145 62.0635 188.615 62.5336 190.385 62.5336C191.694 62.5336 192.877 62.265 193.934 61.7277C194.991 61.1904 195.864 60.5187 196.554 59.7128L197.794 64.6493C196.76 65.4328 195.6 66.0149 194.313 66.3955C193.027 66.7985 191.671 67 190.247 67ZM183.669 54.2726C184.893 54.2726 185.94 54.2726 187.089 54.2726H191.535C192.155 54.2726 192.86 54.2726 193.394 54.2726C193.965 54.2726 194.458 54.2726 194.946 54.2726C194.601 52.9741 193.911 51.8659 192.9 51.0823C191.913 50.2988 190.718 49.907 189.316 49.907C187.938 49.907 186.743 50.31 185.732 51.1159C184.721 51.9219 184.036 52.9741 183.669 54.2726Z" fill="white"/>
<path d="M190.247 67C187.972 67 185.95 66.5298 184.181 65.5895C182.435 64.6493 181.068 63.362 180.08 61.7277C179.115 60.071 178.632 58.2016 178.632 56.1196C178.632 54.127 179.103 52.3472 180.046 50.7801C181.01 49.1906 182.309 47.9369 183.94 47.019C185.571 46.1011 187.375 45.6421 189.351 45.6421C191.373 45.6421 193.176 46.1011 194.762 47.019C196.37 47.9145 197.645 49.1346 198.587 50.6793C199.529 52.2241 200 53.9815 200 55.9516V57.6032H187.145C186.571 57.6032 186.046 57.6032 185.294 57.6032C184.542 57.6032 184.542 57.6032 183.79 57.6032C184.066 59.0584 184.801 60.1829 185.973 61.1232C187.145 62.0635 188.615 62.5336 190.385 62.5336C191.694 62.5336 192.877 62.265 193.934 61.7277C194.991 61.1904 195.864 60.5187 196.554 59.7128L197.794 64.6493C196.76 65.4328 195.6 66.0149 194.313 66.3955C193.027 66.7985 191.671 67 190.247 67ZM183.669 54.2726C184.893 54.2726 185.94 54.2726 187.089 54.2726H191.535C192.155 54.2726 192.86 54.2726 193.394 54.2726C193.965 54.2726 194.458 54.2726 194.946 54.2726C194.601 52.9741 193.911 51.8659 192.9 51.0823C191.913 50.2988 190.718 49.907 189.316 49.907C187.938 49.907 186.743 50.31 185.732 51.1159C184.721 51.9219 184.036 52.9741 183.669 54.2726Z" fill="white"/>
</svg>
