<?xml version="1.0" standalone="no"?>
<!DOCTYPE svg PUBLIC "-//W3C//DTD SVG 20010904//EN"
 "http://www.w3.org/TR/2001/REC-SVG-20010904/DTD/svg10.dtd">
<svg version="1.0" xmlns="http://www.w3.org/2000/svg"
 width="180.000000pt" height="180.000000pt" viewBox="0 0 180.000000 180.000000"
 preserveAspectRatio="xMidYMid meet">
<metadata>
Created by potrace 1.14, written by Peter Selinger 2001-2017
</metadata>
<g transform="translate(0.000000,180.000000) scale(0.100000,-0.100000)"
fill="#000000" stroke="none">
<path d="M763 1505 c-130 -24 -242 -69 -353 -145 -235 -160 -391 -442 -402
-725 l-3 -90 263 -3 262 -2 0 32 c0 58 39 198 75 270 85 169 216 285 385 342
276 92 573 -17 740 -272 28 -42 50 -71 50 -65 0 6 -15 48 -34 92 -86 205 -257
390 -446 485 -172 87 -354 114 -537 81z"/>
<path d="M1051 1135 c-87 -25 -176 -73 -241 -132 -33 -31 -59 -57 -57 -59 2
-3 21 3 43 12 146 61 329 19 443 -101 64 -68 100 -144 114 -241 l10 -74 215 0
215 0 -5 58 c-21 224 -196 447 -411 522 -82 29 -248 37 -326 15z"/>
<path d="M82 398 c-16 -16 -16 -90 0 -106 13 -13 168 -17 168 -4 0 20 -28 32
-78 32 -52 0 -53 1 -50 28 3 25 7 27 57 32 31 3 56 10 59 18 5 16 -139 17
-156 0z"/>
<path d="M282 398 c-7 -7 -12 -31 -12 -55 0 -53 16 -63 99 -63 71 0 91 15 91
69 0 52 -13 61 -95 61 -42 0 -76 -5 -83 -12z m118 -48 c0 -28 -3 -30 -34 -30
-39 0 -50 11 -41 40 5 15 15 20 41 20 31 0 34 -2 34 -30z"/>
<path d="M484 396 c-3 -7 -4 -35 -2 -62 l3 -49 79 -3 c92 -3 116 10 116 64 0
52 -20 64 -111 64 -58 0 -81 -4 -85 -14z m131 -51 c0 -28 -3 -30 -35 -30 -26
0 -36 5 -38 18 -7 34 6 48 40 45 29 -3 33 -6 33 -33z"/>
<path d="M700 345 l0 -65 95 0 c52 0 95 4 95 8 0 20 -28 32 -79 34 l-56 1 45
6 c31 4 45 11 45 21 0 10 -14 17 -45 21 -43 6 -42 6 18 7 48 2 62 5 62 17 0
12 -17 15 -90 15 l-90 0 0 -65z"/>
<path d="M921 401 c-18 -11 -19 -84 -2 -105 10 -12 32 -16 92 -16 44 0 79 4
79 8 0 20 -28 32 -78 32 -52 0 -53 1 -50 28 3 25 7 27 57 32 31 3 56 10 59 18
4 14 -134 17 -157 3z"/>
<path d="M1146 351 c-20 -32 -36 -61 -36 -65 0 -3 14 -6 30 -6 17 0 30 5 30
10 0 6 23 10 50 10 28 0 50 -4 50 -10 0 -5 14 -10 30 -10 17 0 30 3 30 6 0 4
-16 33 -36 65 -33 56 -38 59 -74 59 -36 0 -41 -3 -74 -59z m88 4 c4 -10 -1
-15 -14 -15 -13 0 -18 5 -14 15 4 8 10 15 14 15 4 0 10 -7 14 -15z"/>
<path d="M1310 404 c0 -3 14 -33 32 -66 30 -56 33 -59 67 -56 30 3 39 10 67
58 18 30 33 58 34 63 0 4 -13 7 -28 7 -24 0 -32 -7 -47 -40 -10 -22 -21 -40
-25 -40 -4 0 -15 18 -25 40 -15 33 -23 40 -47 40 -15 0 -28 -3 -28 -6z"/>
<path d="M1522 348 l3 -63 93 -3 c50 -1 92 1 92 6 0 20 -28 32 -79 34 l-56 2
48 3 c39 3 48 7 45 21 -2 11 -17 19 -43 23 -37 6 -35 6 18 8 43 1 57 5 57 16
0 12 -17 15 -90 15 l-91 0 3 -62z"/>
</g>
</svg>
