<svg width="52" height="52" viewBox="0 0 52 52" fill="none" xmlns="http://www.w3.org/2000/svg">
<g clip-path="url(#clip0_929_287)">
<path fill-rule="evenodd" clip-rule="evenodd" d="M33.9324 33.9371C34.2342 33.6349 34.5926 33.3952 34.9872 33.2316C35.3817 33.0681 35.8046 32.9839 36.2317 32.9839C36.6588 32.9839 37.0817 33.0681 37.4763 33.2316C37.8708 33.3952 38.2293 33.6349 38.5311 33.9371L51.0436 46.4496C51.6534 47.059 51.9962 47.8857 51.9965 48.7478C51.9968 49.6099 51.6546 50.4369 51.0452 51.0467C50.4358 51.6565 49.6091 51.9993 48.747 51.9996C47.8849 51.9999 47.0579 51.6577 46.4481 51.0483L33.9356 38.5358C33.6334 38.234 33.3937 37.8755 33.2302 37.481C33.0666 37.0865 32.9824 36.6635 32.9824 36.2364C32.9824 35.8093 33.0666 35.3864 33.2302 34.9919C33.3937 34.5973 33.6334 34.2389 33.9356 33.9371H33.9324Z" fill="black"/>
<path fill-rule="evenodd" clip-rule="evenodd" d="M21.125 39C23.4724 39 25.7968 38.5377 27.9655 37.6393C30.1342 36.741 32.1047 35.4244 33.7645 33.7645C35.4244 32.1047 36.741 30.1342 37.6393 27.9655C38.5377 25.7968 39 23.4724 39 21.125C39 18.7776 38.5377 16.4532 37.6393 14.2845C36.741 12.1158 35.4244 10.1453 33.7645 8.48547C32.1047 6.82562 30.1342 5.50896 27.9655 4.61065C25.7968 3.71235 23.4724 3.25 21.125 3.25C16.3843 3.25 11.8377 5.13325 8.48547 8.48547C5.13325 11.8377 3.25 16.3843 3.25 21.125C3.25 25.8657 5.13325 30.4123 8.48547 33.7645C11.8377 37.1167 16.3843 39 21.125 39ZM42.25 21.125C42.25 26.7277 40.0243 32.1009 36.0626 36.0626C32.1009 40.0243 26.7277 42.25 21.125 42.25C15.5223 42.25 10.1491 40.0243 6.18737 36.0626C2.22566 32.1009 0 26.7277 0 21.125C0 15.5223 2.22566 10.1491 6.18737 6.18737C10.1491 2.22566 15.5223 0 21.125 0C26.7277 0 32.1009 2.22566 36.0626 6.18737C40.0243 10.1491 42.25 15.5223 42.25 21.125Z" fill="black"/>
</g>
<defs>
<clipPath id="clip0_929_287">
<rect width="52" height="52" fill="white"/>
</clipPath>
</defs>
</svg>
