<svg width="52" height="52" viewBox="0 0 52 52" fill="none" xmlns="http://www.w3.org/2000/svg">
<g clip-path="url(#clip0_929_346)">
<path d="M23.0945 50.5475L1.79725 39.8973C1.25749 39.6275 0.80347 39.2129 0.486045 38.6997C0.16862 38.1866 0.000322233 37.5952 0 36.9918V30.781C0.0181639 30.1612 0.213244 29.5596 0.562217 29.0471C0.911191 28.5345 1.39949 28.1325 1.9695 27.8885L19.5 20.3745V23.9105L3.25 30.8753L21.6385 40.0728C22.9926 40.7501 24.4859 41.1027 26 41.1027C27.5141 41.1027 29.0074 40.7501 30.3615 40.0728L48.75 30.8753L32.5 23.9105V20.3778L50.0305 27.8918C50.6005 28.1358 51.0888 28.5378 51.4378 29.0503C51.7868 29.5628 51.9818 30.1645 52 30.7843V36.995C51.9997 37.5984 51.8314 38.1898 51.514 38.703C51.1965 39.2161 50.7425 39.6308 50.2027 39.9005L28.9055 50.5508C28.0033 51.0016 27.0086 51.2363 26 51.2363C24.9914 51.2363 23.9967 51.0016 23.0945 50.5508V50.5475Z" fill="black"/>
<path fill-rule="evenodd" clip-rule="evenodd" d="M24.375 30.875V11.375H27.625V30.875H24.375Z" fill="black"/>
<path d="M32.5 31.6875C32.5 33.033 29.5913 34.125 26 34.125C22.4087 34.125 19.5 33.033 19.5 31.6875C19.5 30.342 22.4087 29.25 26 29.25C29.5913 29.25 32.5 30.342 32.5 31.6875ZM32.5 6.5C32.5 8.22391 31.8152 9.87721 30.5962 11.0962C29.3772 12.3152 27.7239 13 26 13C24.2761 13 22.6228 12.3152 21.4038 11.0962C20.1848 9.87721 19.5 8.22391 19.5 6.5C19.5 4.77609 20.1848 3.12279 21.4038 1.90381C22.6228 0.68482 24.2761 0 26 0C27.7239 0 29.3772 0.68482 30.5962 1.90381C31.8152 3.12279 32.5 4.77609 32.5 6.5V6.5Z" fill="black"/>
</g>
<defs>
<clipPath id="clip0_929_346">
<rect width="52" height="52" fill="white"/>
</clipPath>
</defs>
</svg>
