<svg width="52" height="52" viewBox="0 0 52 52" fill="none" xmlns="http://www.w3.org/2000/svg">
<g clip-path="url(#clip0_929_228)">
<path fill-rule="evenodd" clip-rule="evenodd" d="M46.8975 35.009L37.8365 31.3852C36.5324 34.2419 34.2419 36.5324 31.3852 37.8365L35.009 46.8975C40.3398 44.5912 44.5912 40.3398 46.8975 35.009ZM16.991 46.8975L20.6147 37.8365C17.7581 36.5324 15.4676 34.2419 14.1635 31.3852L5.1025 35.009C7.40884 40.3398 11.6602 44.5912 16.991 46.8975ZM46.8975 16.991C44.5912 11.6602 40.3398 7.40884 35.009 5.1025L31.3852 14.1635C34.2419 15.4676 36.5324 17.7581 37.8365 20.6147L46.8975 16.991ZM20.6147 14.1635L16.991 5.1025C11.6602 7.40884 7.40884 11.6602 5.1025 16.991L14.1635 20.6147C15.4676 17.7581 17.7581 15.4676 20.6147 14.1635ZM26 52C32.8956 52 39.5088 49.2607 44.3848 44.3848C49.2607 39.5088 52 32.8956 52 26C52 19.1044 49.2607 12.4912 44.3848 7.61522C39.5088 2.73928 32.8956 0 26 0C19.1044 0 12.4912 2.73928 7.61522 7.61522C2.73928 12.4912 0 19.1044 0 26C0 32.8956 2.73928 39.5088 7.61522 44.3848C12.4912 49.2607 19.1044 52 26 52ZM26 35.75C28.5859 35.75 31.0658 34.7228 32.8943 32.8943C34.7228 31.0658 35.75 28.5859 35.75 26C35.75 23.4141 34.7228 20.9342 32.8943 19.1057C31.0658 17.2772 28.5859 16.25 26 16.25C23.4141 16.25 20.9342 17.2772 19.1057 19.1057C17.2772 20.9342 16.25 23.4141 16.25 26C16.25 28.5859 17.2772 31.0658 19.1057 32.8943C20.9342 34.7228 23.4141 35.75 26 35.75Z" fill="black"/>
</g>
<defs>
<clipPath id="clip0_929_228">
<rect width="52" height="52" fill="white"/>
</clipPath>
</defs>
</svg>
