<svg width="52" height="52" viewBox="0 0 52 52" fill="none" xmlns="http://www.w3.org/2000/svg">
<g clip-path="url(#clip0_929_226)">
<path fill-rule="evenodd" clip-rule="evenodd" d="M26.6045 3.61684C26.2165 3.46134 25.7835 3.46134 25.3955 3.61684L5.9995 11.3746L26 19.3728L46.0005 11.3746L26.6045 3.61684ZM48.75 13.7763L27.625 22.2263V47.9728L48.75 39.5228V13.7796V13.7763ZM24.375 47.9761V22.2231L3.25 13.7763V39.5261L24.375 47.9761ZM24.1897 0.597588C25.3518 0.132835 26.6482 0.132835 27.8103 0.597588L50.9795 9.86659C51.2807 9.98731 51.5389 10.1955 51.7208 10.4642C51.9027 10.733 51.9999 11.0501 52 11.3746V39.5261C51.9996 40.1755 51.8046 40.8099 51.4403 41.3475C51.0759 41.8851 50.5588 42.3012 49.9557 42.5421L26.6045 51.8826C26.2165 52.0381 25.7835 52.0381 25.3955 51.8826L2.0475 42.5421C1.44382 42.3017 0.926063 41.8858 0.561087 41.3482C0.196111 40.8106 0.00067057 40.1759 0 39.5261L0 11.3746C7.55298e-05 11.0501 0.0973172 10.733 0.279198 10.4642C0.461078 10.1955 0.719266 9.98731 1.0205 9.86659L24.1897 0.597588Z" fill="black"/>
<path d="M24.375 47.9761V22.2231L3.25 13.7763V39.5261L24.375 47.9761Z" fill="black"/>
</g>
<defs>
<clipPath id="clip0_929_226">
<rect width="52" height="52" fill="white"/>
</clipPath>
</defs>
</svg>
