<svg width="52" height="52" viewBox="0 0 52 52" fill="none" xmlns="http://www.w3.org/2000/svg">
<g clip-path="url(#clip0_903_350)">
<path fill-rule="evenodd" clip-rule="evenodd" d="M51.4053 0.375952C51.5913 0.528494 51.7412 0.720449 51.844 0.937958C51.9469 1.15547 52.0002 1.3931 52 1.6337V47.1337C51.9998 47.5092 51.8695 47.8731 51.6313 48.1634C51.3931 48.4537 51.0617 48.6526 50.6935 48.7262L34.4435 51.9762C34.2332 52.0181 34.0168 52.0181 33.8065 51.9762L17.875 48.7912L1.9435 51.9762C1.70784 52.0233 1.46466 52.0176 1.23149 51.9594C0.998322 51.9012 0.780962 51.792 0.595073 51.6397C0.409184 51.4873 0.259393 51.2957 0.156493 51.0785C0.0535931 50.8613 0.000145121 50.624 0 50.3837L0 4.8837C0.000226792 4.50818 0.130507 4.14432 0.368691 3.854C0.606875 3.56367 0.938259 3.36481 1.3065 3.2912L17.5565 0.0412024C17.7668 -0.000822456 17.9832 -0.000822456 18.1935 0.0412024L34.125 3.2262L50.0565 0.0412024C50.2921 -0.00619616 50.5352 -0.000757234 50.7685 0.0571274C51.0017 0.115012 51.2192 0.223902 51.4053 0.375952ZM32.5 6.2162L19.5 3.6162V45.8012L32.5 48.4012V6.2162ZM35.75 48.4012L48.75 45.8012V3.6162L35.75 6.2162V48.4012ZM16.25 45.8012V3.6162L3.25 6.2162V48.4012L16.25 45.8012Z" fill="black"/>
</g>
<defs>
<clipPath id="clip0_903_350">
<rect width="52" height="52" fill="white"/>
</clipPath>
</defs>
</svg>
