<svg width="57" height="58" viewBox="0 0 57 58" fill="none" xmlns="http://www.w3.org/2000/svg">
<path fill-rule="evenodd" clip-rule="evenodd" d="M15.6964 12.4059C19.257 9.33548 23.7984 7.63974 28.5 7.625C38.0831 7.625 46.0382 14.75 46.9039 23.9377C52.5754 24.7393 57 29.4881 57 35.3163C57 41.7146 51.6634 46.8125 45.1974 46.8125H13.4698C6.08475 46.8125 0 40.9914 0 33.6954C0 27.4147 4.51012 22.2134 10.4809 20.8953C10.9903 17.8209 12.9675 14.7571 15.6964 12.4059ZM18.0227 15.1027C15.3259 17.429 13.9151 20.2327 13.9151 22.4272V24.0232L12.3298 24.1978C7.353 24.7428 3.5625 28.829 3.5625 33.6954C3.5625 38.9216 7.94437 43.25 13.4698 43.25H45.1974C49.8037 43.25 53.4375 39.6447 53.4375 35.3163C53.4375 30.9843 49.8037 27.3791 45.1974 27.3791H43.4162V25.5978C43.4198 17.6891 36.7935 11.1875 28.5 11.1875C24.6521 11.2029 20.9362 12.5927 18.0227 15.1062V15.1027Z" fill="black"/>
<path fill-rule="evenodd" clip-rule="evenodd" d="M36.8845 22.3949C37.0504 22.5604 37.182 22.7569 37.2718 22.9733C37.3616 23.1897 37.4078 23.4217 37.4078 23.656C37.4078 23.8903 37.3616 24.1223 37.2718 24.3387C37.182 24.5551 37.0504 24.7517 36.8845 24.9171L26.197 35.6046C26.0315 35.7705 25.8349 35.9021 25.6185 35.9919C25.4021 36.0817 25.1701 36.128 24.9358 36.128C24.7016 36.128 24.4696 36.0817 24.2532 35.9919C24.0367 35.9021 23.8402 35.7705 23.6747 35.6046L18.331 30.2609C18.1654 30.0953 18.034 29.8987 17.9444 29.6823C17.8547 29.4659 17.8086 29.234 17.8086 28.9998C17.8086 28.7656 17.8547 28.5336 17.9444 28.3172C18.034 28.1009 18.1654 27.9043 18.331 27.7386C18.4966 27.573 18.6932 27.4417 18.9096 27.352C19.126 27.2624 19.3579 27.2163 19.5921 27.2163C19.8263 27.2163 20.0582 27.2624 20.2746 27.352C20.491 27.4417 20.6876 27.573 20.8532 27.7386L24.9358 31.8248L34.3622 22.3949C34.5277 22.229 34.7243 22.0974 34.9407 22.0076C35.1571 21.9178 35.3891 21.8716 35.6233 21.8716C35.8576 21.8716 36.0896 21.9178 36.306 22.0076C36.5224 22.0974 36.719 22.229 36.8845 22.3949Z" fill="black"/>
</svg>
