<svg width="52" height="53" viewBox="0 0 52 53" fill="none" xmlns="http://www.w3.org/2000/svg">
<g clip-path="url(#clip0_929_233)">
<path fill-rule="evenodd" clip-rule="evenodd" d="M36.5664 0.720971C36.8845 0.905371 37.1306 1.19219 37.2646 1.53457C37.3986 1.87695 37.4126 2.25465 37.3041 2.60597L31.4509 21.625H42.2506C42.568 21.6248 42.8785 21.7177 43.1437 21.892C43.409 22.0663 43.6173 22.3144 43.7432 22.6058C43.869 22.8972 43.9067 23.219 43.8517 23.5316C43.7967 23.8442 43.6514 24.1338 43.4336 24.3647L17.4336 51.9897C17.1821 52.2572 16.8473 52.4317 16.4839 52.4845C16.1205 52.5374 15.7499 52.4657 15.4325 52.281C15.1151 52.0963 14.8697 51.8095 14.7361 51.4674C14.6026 51.1253 14.5888 50.7481 14.6971 50.3972L20.5504 31.375H9.75065C9.43327 31.3751 9.1228 31.2823 8.85757 31.108C8.59233 30.9337 8.38395 30.6855 8.25813 30.3941C8.13232 30.1028 8.09459 29.7809 8.14959 29.4683C8.20459 29.1558 8.34993 28.8661 8.56765 28.6352L34.5676 1.01022C34.8189 0.743068 35.1532 0.568769 35.516 0.515664C35.8789 0.462558 36.2491 0.53377 36.5664 0.717721V0.720971ZM13.5109 28.125H22.7506C23.005 28.1249 23.2557 28.1846 23.4828 28.2991C23.7098 28.4136 23.9068 28.5798 24.058 28.7844C24.2091 28.9889 24.3101 29.2261 24.3528 29.4767C24.3956 29.7274 24.3789 29.9847 24.3041 30.2277L19.8581 44.6675L38.4871 24.875H29.2506C28.9963 24.875 28.7456 24.8154 28.5185 24.7009C28.2915 24.5863 28.0944 24.4201 27.9433 24.2156C27.7922 24.011 27.6912 23.7739 27.6485 23.5232C27.6057 23.2725 27.6224 23.0153 27.6971 22.7722L32.1431 8.33247L13.5109 28.125Z" fill="black"/>
</g>
<defs>
<clipPath id="clip0_929_233">
<rect width="52" height="52" fill="white" transform="translate(0 0.5)"/>
</clipPath>
</defs>
</svg>
