<svg width="52" height="52" viewBox="0 0 52 52" fill="none" xmlns="http://www.w3.org/2000/svg">
<path fill-rule="evenodd" clip-rule="evenodd" d="M4.33008 8.66775C4.33008 3.8805 14.0313 0 25.9978 0C37.9643 0 47.6656 3.8805 47.6656 8.66775V13C47.6591 17.7905 37.9578 21.6677 25.9978 21.6677C14.0313 21.6677 4.33008 17.7873 4.33008 13V8.66775ZM4.33008 20.5855V30.3355C4.33008 35.1162 14.0313 39 25.9978 39C37.9578 39 47.6591 35.1227 47.6656 30.3388V20.5855C46.2681 21.6255 44.6398 22.4705 42.9271 23.153C38.3803 24.973 32.3906 26 25.9978 26C19.6051 26 13.6153 24.9697 9.06533 23.153C7.38394 22.5025 5.79262 21.6396 4.33008 20.5855ZM47.6656 37.921C46.2681 38.9578 44.6398 39.7995 42.9271 40.4852C38.3771 42.3052 32.3906 43.3323 25.9978 43.3323C19.6051 43.3323 13.6153 42.3052 9.06533 40.4852C7.38397 39.8347 5.79266 38.9718 4.33008 37.9177V43.3323C4.33008 48.1195 14.0313 52 25.9978 52C37.9643 52 47.6656 48.1195 47.6656 43.3323V37.921Z" fill="black"/>
</svg>
