<svg width="54" height="54" viewBox="0 0 54 54" fill="none" xmlns="http://www.w3.org/2000/svg">
<path fill-rule="evenodd" clip-rule="evenodd" d="M14.8703 11.2793C18.2435 8.37046 22.5458 6.76397 27 6.75C36.0788 6.75 43.6151 13.5 44.4352 22.2041C49.8083 22.9635 54 27.4624 54 32.9839C54 39.0454 48.9443 43.875 42.8186 43.875H12.7609C5.7645 43.875 0 38.3603 0 31.4482C0 25.4981 4.27275 20.5706 9.92925 19.3219C10.4119 16.4092 12.285 13.5068 14.8703 11.2793ZM17.0741 13.8341C14.5192 16.038 13.1827 18.6941 13.1827 20.7731V22.2851L11.6809 22.4505C6.966 22.9669 3.375 26.838 3.375 31.4482C3.375 36.3994 7.52625 40.5 12.7609 40.5H42.8186C47.1825 40.5 50.625 37.0845 50.625 32.9839C50.625 28.8799 47.1825 25.4644 42.8186 25.4644H41.1311V23.7769C41.1345 16.2844 34.857 10.125 27 10.125C23.3546 10.1396 19.8343 11.4562 17.0741 13.8375V13.8341Z" fill="black"/>
<path fill-rule="evenodd" clip-rule="evenodd" d="M34.943 20.7423C35.1001 20.8991 35.2248 21.0853 35.3099 21.2903C35.395 21.4953 35.4387 21.7151 35.4387 21.9371C35.4387 22.1591 35.395 22.3788 35.3099 22.5839C35.2248 22.7889 35.1001 22.9751 34.943 23.1318L24.818 33.2568C24.6612 33.414 24.475 33.5387 24.27 33.6238C24.065 33.7088 23.8452 33.7526 23.6232 33.7526C23.4013 33.7526 23.1815 33.7088 22.9765 33.6238C22.7714 33.5387 22.5852 33.414 22.4285 33.2568L17.366 28.1943C17.2091 28.0375 17.0846 27.8512 16.9997 27.6462C16.9148 27.4412 16.8711 27.2215 16.8711 26.9996C16.8711 26.7777 16.9148 26.558 16.9997 26.353C17.0846 26.148 17.2091 25.9617 17.366 25.8048C17.5229 25.648 17.7091 25.5235 17.9141 25.4386C18.1191 25.3537 18.3388 25.31 18.5607 25.31C18.7826 25.31 19.0023 25.3537 19.2073 25.4386C19.4123 25.5235 19.5986 25.648 19.7555 25.8048L23.6232 29.676L32.5535 20.7423C32.7102 20.5852 32.8965 20.4605 33.1015 20.3754C33.3065 20.2904 33.5263 20.2466 33.7482 20.2466C33.9702 20.2466 34.19 20.2904 34.395 20.3754C34.6 20.4605 34.7862 20.5852 34.943 20.7423Z" fill="black"/>
</svg>
