<svg width="52" height="52" viewBox="0 0 52 52" fill="none" xmlns="http://www.w3.org/2000/svg">
<path fill-rule="evenodd" clip-rule="evenodd" d="M51.4052 0.366686C51.5913 0.519232 51.7412 0.711193 51.844 0.928708C51.9469 1.14622 52.0002 1.38387 52 1.62447V47.1258C51.9998 47.5014 51.8695 47.8652 51.6313 48.1556C51.3931 48.4459 51.0617 48.6448 50.6935 48.7184L34.4435 51.9685C34.2332 52.0103 34.0168 52.0103 33.8065 51.9685L17.875 48.7834L1.9435 51.9685C1.70784 52.0156 1.46466 52.0098 1.23149 51.9516C0.998321 51.8934 0.780962 51.7842 0.595073 51.6319C0.409184 51.4796 0.259393 51.2879 0.156493 51.0708C0.0535931 50.8536 0.000145121 50.6163 0 50.3759L0 4.87457C0.000226792 4.49903 0.130507 4.13517 0.368691 3.84484C0.606875 3.5545 0.938259 3.35563 1.3065 3.28202L17.5565 0.031926C17.7668 -0.0101001 17.9832 -0.0101001 18.1935 0.031926L34.125 3.21702L50.0565 0.031926C50.2921 -0.015474 50.5352 -0.0100349 50.7685 0.0478515C51.0017 0.105738 51.2192 0.214631 51.4052 0.366686ZM32.5 6.20711L19.5 3.60703V45.7933L32.5 48.3934V6.20711ZM35.75 48.3934L48.75 45.7933V3.60703L35.75 6.20711V48.3934ZM16.25 45.7933V3.60703L3.25 6.20711V48.3934L16.25 45.7933Z" fill="black"/>
<path d="M32.5 6.20711L19.5 3.60703V45.7933L32.5 48.3934V6.20711Z" fill="black"/>
</svg>
