<svg width="52" height="52" viewBox="0 0 52 52" fill="none" xmlns="http://www.w3.org/2000/svg">
<path d="M14.625 11.375C12.9011 11.375 11.2478 12.0598 10.0288 13.2788C8.80982 14.4978 8.125 16.1511 8.125 17.875C8.125 19.5989 8.80982 21.2522 10.0288 22.4712C11.2478 23.6902 12.9011 24.375 14.625 24.375C16.3489 24.375 18.0022 23.6902 19.2212 22.4712C20.4402 21.2522 21.125 19.5989 21.125 17.875C21.125 16.1511 20.4402 14.4978 19.2212 13.2788C18.0022 12.0598 16.3489 11.375 14.625 11.375Z" fill="black"/>
<path d="M15.99 32.5C10.569 32.565 7.49125 34.58 5.72 36.647C3.77975 38.9025 3.25 41.4017 3.25 42.25H13C13 38.8538 14.0497 35.4705 15.99 32.5Z" fill="black"/>
<path fill-rule="evenodd" clip-rule="evenodd" d="M48.75 45.5C48.75 45.5 52 45.5 52 42.25C52 39 48.75 29.25 35.75 29.25C22.75 29.25 19.5 39 19.5 42.25C19.5 45.5 22.75 45.5 22.75 45.5H48.75ZM48.6785 42.25C48.6937 42.2482 48.7089 42.2461 48.724 42.2435L48.75 42.237C48.7435 41.379 48.2072 38.8895 46.28 36.647C44.486 34.5442 41.3335 32.5 35.75 32.5C30.1698 32.5 27.0173 34.5475 25.22 36.647C23.2928 38.8895 22.7533 41.3822 22.75 42.237C22.7738 42.2416 22.7976 42.2459 22.8215 42.25H48.6785ZM35.75 22.75C37.4739 22.75 39.1272 22.0652 40.3462 20.8462C41.5652 19.6272 42.25 17.9739 42.25 16.25C42.25 14.5261 41.5652 12.8728 40.3462 11.6538C39.1272 10.4348 37.4739 9.75 35.75 9.75C34.0261 9.75 32.3728 10.4348 31.1538 11.6538C29.9348 12.8728 29.25 14.5261 29.25 16.25C29.25 17.9739 29.9348 19.6272 31.1538 20.8462C32.3728 22.0652 34.0261 22.75 35.75 22.75ZM45.5 16.25C45.5 17.5304 45.2478 18.7982 44.7578 19.9812C44.2678 21.1641 43.5497 22.2389 42.6443 23.1443C41.7389 24.0497 40.6641 24.7678 39.4812 25.2578C38.2982 25.7478 37.0304 26 35.75 26C34.4696 26 33.2018 25.7478 32.0188 25.2578C30.8359 24.7678 29.7611 24.0497 28.8557 23.1443C27.9503 22.2389 27.2322 21.1641 26.7422 19.9812C26.2522 18.7982 26 17.5304 26 16.25C26 13.6641 27.0272 11.1842 28.8557 9.35571C30.6842 7.52723 33.1641 6.5 35.75 6.5C38.3359 6.5 40.8158 7.52723 42.6443 9.35571C44.4728 11.1842 45.5 13.6641 45.5 16.25Z" fill="black"/>
<path fill-rule="evenodd" clip-rule="evenodd" d="M22.542 30.16C21.2419 29.7506 19.9018 29.4815 18.5445 29.3573C17.7818 29.2847 17.0161 29.2489 16.25 29.25C3.25 29.25 0 39 0 42.25C0 44.4178 1.08225 45.5 3.25 45.5H16.952C16.4702 44.4854 16.2299 43.373 16.25 42.25C16.25 38.9675 17.4753 35.6135 19.7925 32.812C20.5822 31.8565 21.502 30.9627 22.542 30.16ZM5.72 36.647C7.49125 34.58 10.569 32.565 15.99 32.5C14.0497 35.4705 13 38.8538 13 42.25H3.25C3.25 41.4017 3.77975 38.9025 5.72 36.647Z" fill="black"/>
<path fill-rule="evenodd" clip-rule="evenodd" d="M4.875 17.875C4.875 15.2891 5.90223 12.8092 7.73071 10.9807C9.55919 9.15223 12.0391 8.125 14.625 8.125C17.2109 8.125 19.6908 9.15223 21.5193 10.9807C23.3478 12.8092 24.375 15.2891 24.375 17.875C24.375 20.4609 23.3478 22.9408 21.5193 24.7693C19.6908 26.5978 17.2109 27.625 14.625 27.625C12.0391 27.625 9.55919 26.5978 7.73071 24.7693C5.90223 22.9408 4.875 20.4609 4.875 17.875ZM10.0288 13.2788C11.2478 12.0598 12.9011 11.375 14.625 11.375C16.3489 11.375 18.0022 12.0598 19.2212 13.2788C20.4402 14.4978 21.125 16.1511 21.125 17.875C21.125 19.5989 20.4402 21.2522 19.2212 22.4712C18.0022 23.6902 16.3489 24.375 14.625 24.375C12.9011 24.375 11.2478 23.6902 10.0288 22.4712C8.80982 21.2522 8.125 19.5989 8.125 17.875C8.125 16.1511 8.80982 14.4978 10.0288 13.2788Z" fill="black"/>
</svg>
